<svg id="visual" viewBox="0 0 540 960" width="540" height="960" xmlns="http://www.w3.org/2000/svg"
    xmlns:xlink="http://www.w3.org/1999/xlink" version="1.1">
    <rect x="0" y="0" width="540" height="960" fill="#FFFFFF"></rect>
    <path
        d="M0 242L11.3 243.2C22.7 244.3 45.3 246.7 67.8 253C90.3 259.3 112.7 269.7 135.2 262C157.7 254.3 180.3 228.7 202.8 226.3C225.3 224 247.7 245 270.2 247.7C292.7 250.3 315.3 234.7 337.8 227.3C360.3 220 382.7 221 405.2 218.8C427.7 216.7 450.3 211.3 472.8 217.8C495.3 224.3 517.7 242.7 528.8 251.8L540 261L540 0L528.8 0C517.7 0 495.3 0 472.8 0C450.3 0 427.7 0 405.2 0C382.7 0 360.3 0 337.8 0C315.3 0 292.7 0 270.2 0C247.7 0 225.3 0 202.8 0C180.3 0 157.7 0 135.2 0C112.7 0 90.3 0 67.8 0C45.3 0 22.7 0 11.3 0L0 0Z"
        fill="#f7770f"></path>
    <path
        d="M0 219L11.3 211.8C22.7 204.7 45.3 190.3 67.8 187.8C90.3 185.3 112.7 194.7 135.2 197C157.7 199.3 180.3 194.7 202.8 193.2C225.3 191.7 247.7 193.3 270.2 197.8C292.7 202.3 315.3 209.7 337.8 208C360.3 206.3 382.7 195.7 405.2 189.3C427.7 183 450.3 181 472.8 175.7C495.3 170.3 517.7 161.7 528.8 157.3L540 153L540 0L528.8 0C517.7 0 495.3 0 472.8 0C450.3 0 427.7 0 405.2 0C382.7 0 360.3 0 337.8 0C315.3 0 292.7 0 270.2 0C247.7 0 225.3 0 202.8 0C180.3 0 157.7 0 135.2 0C112.7 0 90.3 0 67.8 0C45.3 0 22.7 0 11.3 0L0 0Z"
        fill="#fb8607"></path>
    <path
        d="M0 170L11.3 170.2C22.7 170.3 45.3 170.7 67.8 162.2C90.3 153.7 112.7 136.3 135.2 128.2C157.7 120 180.3 121 202.8 129.5C225.3 138 247.7 154 270.2 155.5C292.7 157 315.3 144 337.8 140.8C360.3 137.7 382.7 144.3 405.2 143.2C427.7 142 450.3 133 472.8 127.8C495.3 122.7 517.7 121.3 528.8 120.7L540 120L540 0L528.8 0C517.7 0 495.3 0 472.8 0C450.3 0 427.7 0 405.2 0C382.7 0 360.3 0 337.8 0C315.3 0 292.7 0 270.2 0C247.7 0 225.3 0 202.8 0C180.3 0 157.7 0 135.2 0C112.7 0 90.3 0 67.8 0C45.3 0 22.7 0 11.3 0L0 0Z"
        fill="#fd9601"></path>
    <path
        d="M0 58L11.3 62.8C22.7 67.7 45.3 77.3 67.8 81C90.3 84.7 112.7 82.3 135.2 83.8C157.7 85.3 180.3 90.7 202.8 94.2C225.3 97.7 247.7 99.3 270.2 94.5C292.7 89.7 315.3 78.3 337.8 70C360.3 61.7 382.7 56.3 405.2 55.8C427.7 55.3 450.3 59.7 472.8 61C495.3 62.3 517.7 60.7 528.8 59.8L540 59L540 0L528.8 0C517.7 0 495.3 0 472.8 0C450.3 0 427.7 0 405.2 0C382.7 0 360.3 0 337.8 0C315.3 0 292.7 0 270.2 0C247.7 0 225.3 0 202.8 0C180.3 0 157.7 0 135.2 0C112.7 0 90.3 0 67.8 0C45.3 0 22.7 0 11.3 0L0 0Z"
        fill="#ffa500"></path>
</svg>